<svg xmlns="http://www.w3.org/2000/svg" height="512" width="512"><rect id="backgroundrect" width="100%" height="100%" x="0" y="0" fill="none" stroke="none"/><g class="currentLayer" style=""><title>Layer 1</title><path d="m352.44856461361087,34.788559207361686 h-120.23522031754601 c-21.768380502909622,0 -39.41255969850158,19.162672395933782 -39.41255969850158,42.88144871344457 v196.2252281174069 c0,8.325028338092125 8.774587674866666,13.193884217247444 14.966980527229339,8.142147608595906 l37.58309962869998,-30.668225626769072 h107.09770153389991 c21.768380502909622,0 39.41255969850158,-19.162672395933782 39.41255969850158,-42.88144871344457 v-130.81771142847902 c0,-23.68431984867982 -17.612509573190778,-42.88144871344457 -39.41255969850158,-42.88144871344457 zm-69.47319254743843,162.07432486254856 h-40.742633625902045 c-5.166823741957245,0 -9.354362201850222,-4.556104340022415 -9.354362201850222,-10.177684510744882 c0,-5.621581426058697 4.187538878338387,-10.177684510744882 9.354362201850222,-10.177684510744882 h40.742633625902045 c5.166823741957245,0 9.354362201850222,4.556103503131595 9.354362201850222,10.177684510744882 c0,5.621580589167877 -4.187538878338387,10.177684510744882 -9.354362201850222,10.177684510744882 zm59.453795055669616,-43.60501782107849 h-100.19642533400838 c-5.166823741957245,0 -9.354362201850222,-4.55875477324858 -9.354362201850222,-10.177684510744882 c0,-5.621580589167877 4.187538878338387,-10.177684510744882 9.354362201850222,-10.177684510744882 h100.19642533400838 c5.164387552780937,0 9.354362201850222,4.556104340022415 9.354362201850222,10.177684510744882 c0,5.618930155941712 -4.187538878338387,10.177684510744882 -9.354362201850222,10.177684510744882 zm0,-43.607669091195476 h-100.19642533400838 c-5.166823741957245,0 -9.354362201850222,-4.556103503131595 -9.354362201850222,-10.177684510744882 c0,-5.618930155941712 4.187538878338387,-10.177684510744882 9.354362201850222,-10.177684510744882 h100.19642533400838 c5.164387552780937,0 9.354362201850222,4.55875477324858 9.354362201850222,10.177684510744882 c0,5.621581426058697 -4.187538878338387,10.177684510744882 -9.354362201850222,10.177684510744882 zm0,0 " id="svg_1" class="selected" fill="#0d71db" fill-opacity="1"/><path d="m166.238281 311.898438c0 39.160156-31.746093 70.90625-70.90625 70.90625-39.160156 0-70.90625-31.746094-70.90625-70.90625 0-39.164063 31.746094-70.910157 70.90625-70.910157 39.160157 0 70.90625 31.746094 70.90625 70.910157zm0 0" id="svg_2" class="" fill-opacity="1" fill="#d83f07"/><path d="m95.332031 382.804688c-52.648437 0-95.332031 42.683593-95.332031 95.332031v18.863281c0 8.285156 6.714844 15 15 15h160.667969c8.28125 0 15-6.714844 15-15v-18.863281c0-52.648438-42.683594-95.332031-95.335938-95.332031zm0 0" id="svg_3" class="" fill-opacity="1" fill="#d83f07"/></g></svg>